<svg height="358" width="603" viewBox="21 557 603 358" style="background-color:transparent;" preserveAspectRatio="xMinYMin meet" xmlns:xlink="http://www.w3.org/1999/xlink" xmlns="http://www.w3.org/2000/svg"><defs><style type="text/css">.svg-txt-center tspan {text-anchor: middle;}.svg-txt-right tspan {text-anchor: end;}</style></defs><g transform="translate(0,0)"><g transform="matrix(1,0,0,1,231,758)"><path style="fill:none;stroke:#333333;stroke-width:3.0;;" d="m1.6207018999999998,-0.41495999999999994l109.56509999999999,-0.025114742857142856c2.7206929999999994,0 4.252953,0.7234342285714286 4.252953,2.0077462857142856c-0.330395,10.141798285714284 1.0273938999999999,22.029142857142855 0.8774063,34.941542857142856c0.0942494,1.283585714285714 -1.0935396,2.525425714285714 -3.814228,2.525425714285714l-109.27046999999999,-0.9318425142857143c-2.7206929999999994,0 -2.717473,-0.3092005714285714 -2.717473,-1.593448571428571l-1.3913872999999999,-35.43456571428571c0,-1.2843131428571428 -0.22257789999999997,-1.4898062857142855 2.498122,-1.4898062857142855z"/></g><text style="font-weight:bold; font-size: 12px; text-anchor: middle; font-family: arial,helvetica,sans-serif; fill: #333333;" class="" y="782" x="288">CloseWaiter</text></g><g transform="translate(0,0)"><path style="fill:none;stroke:#333333;stroke-width:2;;" d="M283,756 C283,730.5 282,730.5  282,705"/><polyline style="fill:#ffffff;stroke:#333333;stroke-width:2;fill-opacity:0;" points="292,722 282,705 272,722"/><text style="font-weight:Normal; font-size: 12px; text-anchor: middle; font-family: sans-serif; fill: #333333;" class="" y="718" x="268"/><text style="font-weight:Normal; font-size: 12px; text-anchor: start; font-family: sans-serif; fill: #333333;" class="" y="730" x="282"/><text style="font-weight:Normal; font-size: 12px; text-anchor: middle; font-family: sans-serif; fill: #333333;" class="" y="743" x="268"/></g><g transform="translate(0,0)"><path style="fill:none;stroke:#333333;stroke-width:2;;" d="M108,860 C108,771 168,682  228,682"/><polyline style="fill:#ffffff;stroke:#333333;stroke-width:2;fill-opacity:0;" points="211,693 228,682 209,673"/><text style="font-weight:Normal; font-size: 12px; text-anchor: middle; font-family: sans-serif; fill: #333333;" class="" y="687" x="208"/><text style="font-weight:Normal; font-size: 12px; text-anchor: start; font-family: sans-serif; fill: #333333;" class="" y="737" x="145"/><text style="font-weight:Normal; font-size: 12px; text-anchor: middle; font-family: sans-serif; fill: #333333;" class="" y="840" x="102"/></g><g transform="translate(0,0)"><path style="fill:none;stroke:#333333;stroke-width:2;;" d="M142,860 C142,818.5 184.5,777  227,777"/><polyline style="fill:#ffffff;stroke:#333333;stroke-width:2;fill-opacity:0;" points="210,787 227,777 209,767"/><text style="font-weight:Normal; font-size: 12px; text-anchor: middle; font-family: sans-serif; fill: #333333;" class="" y="778" x="207"/><text style="font-weight:Normal; font-size: 12px; text-anchor: start; font-family: sans-serif; fill: #333333;" class="" y="802" x="168"/><text style="font-weight:Normal; font-size: 12px; text-anchor: middle; font-family: sans-serif; fill: #333333;" class="" y="840" x="141"/></g><g transform="translate(0,0)"><path style="fill:none;stroke:#333333;stroke-width:2;;" d="M293,661 C293,635 293,635  293,609"/><polyline style="fill:#ffffff;stroke:#333333;stroke-width:2;fill-opacity:0;" points="303,626 293,609 283,626"/><text style="font-weight:Normal; font-size: 12px; text-anchor: middle; font-family: sans-serif; fill: #333333;" class="" y="623" x="278"/><text style="font-weight:Normal; font-size: 12px; text-anchor: start; font-family: sans-serif; fill: #333333;" class="" y="635" x="293"/><text style="font-weight:Normal; font-size: 12px; text-anchor: middle; font-family: sans-serif; fill: #333333;" class="" y="647" x="278"/></g><g transform="translate(0,0)"><path style="fill:none;stroke:#333333;stroke-width:2;;" d="M480,756 C480,720 419,684  358,684"/><polyline style="fill:#ffffff;stroke:#333333;stroke-width:2;fill-opacity:0;" points="375,674 358,684 375,694"/><text style="font-weight:Normal; font-size: 12px; text-anchor: middle; font-family: sans-serif; fill: #333333;" class="" y="704" x="362"/><text style="font-weight:Normal; font-size: 12px; text-anchor: start; font-family: sans-serif; fill: #333333;" class="" y="706" x="441"/><text style="font-weight:Normal; font-size: 12px; text-anchor: middle; font-family: sans-serif; fill: #333333;" class="" y="761" x="460"/></g><g transform="translate(0,0)"><path style="fill:none;stroke:#333333;stroke-width:2;;" d="M480,860 C480,830 480,830  480,800"/><polyline style="fill:#ffffff;stroke:#333333;stroke-width:2;fill-opacity:0;" points="490,817 480,800 470,817"/><text style="font-weight:Normal; font-size: 12px; text-anchor: middle; font-family: sans-serif; fill: #333333;" class="" y="814" x="465"/><text style="font-weight:Normal; font-size: 12px; text-anchor: start; font-family: sans-serif; fill: #333333;" class="" y="830" x="480"/><text style="font-weight:Normal; font-size: 12px; text-anchor: middle; font-family: sans-serif; fill: #333333;" class="" y="846" x="465"/></g><g transform="translate(0,0)"><path style="fill:none;stroke:#333333;stroke-width:2;;" d="M333,661 C333,624.5 380.5,588  428,588"/><polyline style="fill:#ffffff;stroke:#333333;stroke-width:2;fill-opacity:0;" points="411,598 428,588 410,578"/><text style="font-weight:Normal; font-size: 12px; text-anchor: middle; font-family: sans-serif; fill: #333333;" class="" y="586" x="408"/><text style="font-weight:Normal; font-size: 12px; text-anchor: start; font-family: sans-serif; fill: #333333;" class="" y="610" x="362"/><text style="font-weight:Normal; font-size: 12px; text-anchor: middle; font-family: sans-serif; fill: #333333;" class="" y="641" x="334"/></g><g transform="translate(0,0)"><g transform="matrix(1,0,0,1,36,862)"><path style="fill:none;stroke:#333333;stroke-width:3.0;;" d="m2.15623818,-0.41495999999999994l145.76922,-0.025114742857142856c3.6197046,0 5.6582766,0.7234342285714286 5.6582766,2.0077462857142856c-0.439569,10.141798285714284 1.3668805800000001,22.029142857142855 1.16733186,34.941542857142856c0.12539268,1.283585714285714 -1.45488312,2.525425714285714 -5.0745816,2.525425714285714l-145.377234,-0.9318425142857143c-3.6197046,0 -3.6154206,-0.3092005714285714 -3.6154206,-1.593448571428571l-1.8511500600000002,-35.43456571428571c0,-1.2843131428571428 -0.29612538,-1.4898062857142855 3.3235884,-1.4898062857142855z"/></g><text style="font-weight:bold; font-size: 12px; text-anchor: middle; font-family: arial,helvetica,sans-serif; fill: #333333;" class="" y="886" x="112">CreateCompactFile</text></g><g transform="translate(0,0)"><g transform="matrix(1,0,0,1,232,663)"><path style="fill:none;stroke:#333333;stroke-width:3.0;;" d="m1.71935332,-0.41495999999999994l116.23428,-0.025114742857142856c2.8863003999999997,0 4.5118284,0.7234342285714286 4.5118284,2.0077462857142856c-0.350506,10.141798285714284 1.08993092,22.029142857142855 0.93081364,34.941542857142856c0.09998632,1.283585714285714 -1.16010288,2.525425714285714 -4.0463984,2.525425714285714l-115.92171599999999,-0.9318425142857143c-2.8863003999999997,0 -2.8828844,-0.3092005714285714 -2.8828844,-1.593448571428571l-1.47608044,-35.43456571428571c0,-1.2843131428571428 -0.23612612,-1.4898062857142855 2.6501816000000002,-1.4898062857142855z"/></g><text style="font-weight:bold; font-size: 12px; text-anchor: middle; font-family: arial,helvetica,sans-serif; fill: #333333;" class="" y="687" x="293">DownloadFile</text></g><g transform="translate(0,0)"><g transform="matrix(1,0,0,1,212,567)"><path style="fill:none;stroke:#333333;stroke-width:3.0;;" d="m2.14214512,-0.41495999999999994l144.81648,-0.025114742857142856c3.5960463999999996,0 5.6212944,0.7234342285714286 5.6212944,2.0077462857142856c-0.43669600000000003,10.141798285714284 1.35794672,22.029142857142855 1.15970224,34.941542857142856c0.12457312000000001,1.283585714285714 -1.44537408,2.525425714285714 -5.0414144,2.525425714285714l-144.427056,-0.9318425142857143c-3.5960463999999996,0 -3.5917904000000003,-0.3092005714285714 -3.5917904000000003,-1.593448571428571l-1.83905104,-35.43456571428571c0,-1.2843131428571428 -0.29418992,-1.4898062857142855 3.3018656,-1.4898062857142855z"/></g><text style="font-weight:bold; font-size: 12px; text-anchor: middle; font-family: arial,helvetica,sans-serif; fill: #333333;" class="" y="591" x="288">FetchDownloadList</text></g><g transform="translate(0,0)"><g transform="matrix(1,0,0,1,421,758)"><path style="fill:none;stroke:#333333;stroke-width:3.0;;" d="m1.6629810799999998,-0.41495999999999994l112.42331999999999,-0.025114742857142856c2.7916676,0 4.3638996,0.7234342285714286 4.3638996,2.0077462857142856c-0.339014,10.141798285714284 1.05419548,22.029142857142855 0.90029516,34.941542857142856c0.09670808,1.283585714285714 -1.1220667199999999,2.525425714285714 -3.9137296,2.525425714285714l-112.12100399999999,-0.9318425142857143c-2.7916676,0 -2.7883636,-0.3092005714285714 -2.7883636,-1.593448571428571l-1.42768436,-35.43456571428571c0,-1.2843131428571428 -0.22838428,-1.4898062857142855 2.5632904,-1.4898062857142855z"/></g><text style="font-weight:bold; font-size: 12px; text-anchor: middle; font-family: arial,helvetica,sans-serif; fill: #333333;" class="" y="782" x="480">FileSearcher</text></g><g transform="translate(0,0)"><g transform="matrix(1,0,0,1,421,862)"><path style="fill:none;stroke:#333333;stroke-width:3.0;;" d="m1.6629810799999998,-0.41495999999999994l112.42331999999999,-0.025114742857142856c2.7916676,0 4.3638996,0.7234342285714286 4.3638996,2.0077462857142856c-0.339014,10.141798285714284 1.05419548,22.029142857142855 0.90029516,34.941542857142856c0.09670808,1.283585714285714 -1.1220667199999999,2.525425714285714 -3.9137296,2.525425714285714l-112.12100399999999,-0.9318425142857143c-2.7916676,0 -2.7883636,-0.3092005714285714 -2.7883636,-1.593448571428571l-1.42768436,-35.43456571428571c0,-1.2843131428571428 -0.22838428,-1.4898062857142855 2.5632904,-1.4898062857142855z"/></g><text style="font-weight:bold; font-size: 12px; text-anchor: middle; font-family: arial,helvetica,sans-serif; fill: #333333;" class="" y="886" x="480">ManageFiles</text></g><g transform="translate(0,0)"><g transform="matrix(1,0,0,1,56,567)"><path style="fill:none;stroke:#333333;stroke-width:3.0;;" d="m1.57842272,-0.41495999999999994l106.70688000000001,-0.025114742857142856c2.6497184000000003,0 4.1420064000000005,0.7234342285714286 4.1420064000000005,2.0077462857142856c-0.321776,10.141798285714284 1.0005923200000002,22.029142857142855 0.8545174400000001,34.941542857142856c0.09179072,1.283585714285714 -1.06501248,2.525425714285714 -3.7147264000000004,2.525425714285714l-106.419936,-0.9318425142857143c-2.6497184000000003,0 -2.6465824000000002,-0.3092005714285714 -2.6465824000000002,-1.593448571428571l-1.3550902400000002,-35.43456571428571c0,-1.2843131428571428 -0.21677152000000002,-1.4898062857142855 2.4329536000000003,-1.4898062857142855z"/></g><text style="font-weight:bold; font-size: 12px; text-anchor: middle; font-family: arial,helvetica,sans-serif; fill: #333333;" class="" y="591" x="112">SetRegistry</text></g><g transform="translate(0,0)"><g transform="matrix(1,0,0,1,432,567)"><path style="fill:none;stroke:#333333;stroke-width:3.0;;" d="m2.49447162,-0.41495999999999994l168.63498,-0.025114742857142856c4.1875013999999995,0 6.5458494,0.7234342285714286 6.5458494,2.0077462857142856c-0.508521,10.141798285714284 1.58129322,22.029142857142855 1.35044274,34.941542857142856c0.14506212000000002,1.283585714285714 -1.68310008,2.525425714285714 -5.8705944,2.525425714285714l-168.18150599999998,-0.9318425142857143c-4.1875013999999995,0 -4.1825454,-0.3092005714285714 -4.1825454,-1.593448571428571l-2.14152654,-35.43456571428571c0,-1.2843131428571428 -0.34257642,-1.4898062857142855 3.8449356000000003,-1.4898062857142855z"/></g><text style="font-weight:bold; font-size: 12px; text-anchor: middle; font-family: arial,helvetica,sans-serif; fill: #333333;" class="" y="591" x="520">SetupLocalEnvironment</text></g><text style="font-weight:Normal; font-size: 16px; text-anchor: end; font-family: Arial; fill: #ccc;" y="900" x="609">www.sketchboard.io</text></svg>